<svg width="111" height="24" viewBox="0 0 111 24" fill="none" xmlns="http://www.w3.org/2000/svg">
<path d="M18.041 19.9224C19.166 19.9224 19.916 19.6168 20.321 18.7318L20.9341 17.3386L14.2666 0.671753H18.8923L23.1785 12.1093L27.4629 0.671753H32.1223L24.4029 19.7968C23.1785 22.8811 20.9998 23.6986 18.1872 23.7661C17.4671 23.7526 16.7497 23.6729 16.0441 23.528L16.6872 19.6505C17.1193 19.8256 17.5804 19.9179 18.0466 19.9224H18.041Z" fill="#FF8300"/>
<path d="M1.92 12.1992C3.13875 13.3505 5.65125 14.5017 7.74563 14.5017C9.66375 14.5017 10.5694 13.8398 10.5694 12.7936C10.5694 11.6067 9.105 11.1886 7.19438 10.8042C4.29 10.2455 0.5625 9.54798 0.5625 5.53736C0.5625 2.71174 3.03562 0.234864 7.46625 0.234864C9.92987 0.201162 12.3304 1.01393 14.2669 2.53736L12.4875 5.57861C11.4769 4.49111 9.5625 3.61924 7.5 3.61924C5.89687 3.61924 4.84875 4.21173 4.84875 5.18861C4.84875 6.23486 6.17438 6.61923 8.05875 7.00173C10.9537 7.56423 14.8256 8.32735 14.8256 12.5142C14.8256 15.5836 12.21 17.9198 7.53562 17.9198C4.605 17.9198 1.77937 16.9448 0 15.3042L1.92 12.1992Z" fill="#FF8300"/>
<path d="M43.8751 7.31674C43.8751 4.97861 42.6545 4.17799 40.772 4.17799C40.022 4.18637 39.2844 4.37055 38.6186 4.71574C37.9526 5.06091 37.3769 5.55746 36.9376 6.16549V17.5017H32.5107V0.652988H36.9376V2.85049C38.0232 1.56049 40.0801 0.234863 42.8364 0.234863C46.5339 0.234863 48.3132 2.32736 48.3132 5.60674V17.5017H43.8751V7.31674Z" fill="#FF8300"/>
<path d="M58.1533 0.234863C61.6071 0.234863 63.6995 1.73486 64.8151 3.27049L61.9221 5.99111C61.1196 4.80424 59.8971 4.17799 58.3596 4.17799C55.6727 4.17799 53.7884 6.12986 53.7884 9.05299C53.7884 11.9761 55.6765 13.9786 58.3633 13.9786C59.0605 13.9913 59.7499 13.8324 60.3713 13.5159C60.9924 13.1994 61.5262 12.735 61.9258 12.1636L64.8189 14.8505C63.7033 16.4217 61.6108 17.9217 58.1571 17.9217C52.9597 17.9217 49.2266 14.258 49.2266 9.06049C49.2228 3.89111 52.9559 0.234863 58.1533 0.234863Z" fill="#FF8300"/>
<path d="M106.391 7.31674C106.391 4.97861 105.169 4.17799 103.286 4.17799C102.536 4.18579 101.798 4.36971 101.132 4.71491C100.465 5.06012 99.8893 5.55699 99.4502 6.16549V17.5017H95.0195V0.652988H99.4502V2.85049C100.532 1.56049 102.589 0.234863 105.345 0.234863C109.043 0.234863 110.822 2.32736 110.822 5.60674V17.5017H106.391V7.31674Z" fill="#FF8300"/>
<path d="M70.3984 2.95356V0.652946H65.9678V17.5017H70.3984V6.29293C71.5121 5.03481 73.4997 4.19669 75.7497 4.19669H75.7646V0.270447C73.6759 0.270447 71.5834 1.45357 70.3984 2.95356Z" fill="#FF8300"/>
<path d="M80.5648 11.7267H76.1792L74.6455 9.06982L79.4979 0.666077H89.2027L91.2989 4.2942H81.7272L79.106 9.06982L80.5648 11.7267Z" fill="#FF8300"/>
<path d="M94.0561 9.06982L89.2036 17.4754H79.4986L77.4023 13.8436H86.9742L89.5955 9.06982L88.1348 6.41107H92.5223L94.0561 9.06982Z" fill="#FF8300"/>
</svg>
